#!OML:ASF X:\für Bonn\!DataBase\2005_08_12_Daniel\c3d\Daniel.ASF
:FULLY-SPECIFIED
:DEGREES
191
root 11.2748 16.9649 2.00384 85.7427 -94.7685 -91.9309
lowerback 8.03325 -1.16596 -9.42593
upperback 3.64286 -2.68914 -6.64977
thorax -0.610152 -1.54051 -1.42123
lowerneck 7.51327 4.53072 -0.0973066
upperneck 6.65109 5.64889 4.17502
head 0.685095 2.72431 1.20502
rclavicle -3.58806e-014 -2.8625e-014
rhumerus -37.7184 10.7539 -103.364
rradius 44.9608
rwrist 20.4324
rhand -17.4076 18.9337
rfingers 7.12502
rthumb 8.84199 -10.861
lclavicle -3.58806e-014 -2.8625e-014
lhumerus -50.5843 -3.29337 86.2466
lradius 109.982
lwrist 9.95064
lhand -15.4247 -10.5987
lfingers 7.12502
lthumb 10.7551 19.106
rfemur -6.30421 -13.9592 9.94357
rtibia 60.4564
rfoot -21.4385 0.871905
rtoes -8.8552
lfemur -13.8227 -13.3399 -29.5041
ltibia 44.9759
lfoot -28.0329 15.911
ltoes -11.8414
192
root 11.3506 16.9655 1.9997 85.9585 -94.8272 -92.0163
lowerback 7.78732 -1.02904 -9.35014
upperback 3.57113 -2.47538 -6.72063
thorax -0.564723 -1.43309 -1.55929
lowerneck 7.43906 4.42459 -0.217239
upperneck 6.7498 5.49033 4.31931
head 0.723418 2.64462 1.27673
rclavicle 5.46658e-015 5.88403e-014
rhumerus -37.7518 10.8209 -103.322
rradius 44.5451
rwrist 20.627
rhand -17.1187 18.9787
rfingers 7.12502
rthumb 9.12078 -10.8041
lclavicle 5.46658e-015 5.88403e-014
lhumerus -50.6142 -3.13432 86.1868
lradius 109.85
lwrist 9.96593
lhand -15.4529 -10.8337
lfingers 7.12502
lthumb 10.7279 18.8724
rfemur -4.89352 -13.774 9.7563
rtibia 59.8508
rfoot -20.9791 0.617416
rtoes -8.42026
lfemur -14.3051 -13.2289 -29.4004
ltibia 44.9756
lfoot -27.6797 15.7228
ltoes -11.7295
193
root 11.4278 16.9648 1.996 85.9532 -94.8884 -91.8767
lowerback 7.54801 -0.888976 -9.26377
upperback 3.49114 -2.25822 -6.78694
thorax -0.530694 -1.32321 -1.69731
lowerneck 7.36657 4.31272 -0.328568
upperneck 6.8546 5.32481 4.44622
head 0.764837 2.56168 1.34194
rclavicle 6.06293e-015 3.49861e-014
rhumerus -37.7823 10.8207 -103.254
rradius 44.1225
rwrist 20.8224
rhand -16.8069 19.0171
rfingers 7.12502
rthumb 9.42168 -10.7524
lclavicle 6.06293e-015 3.49861e-014
lhumerus -50.5731 -2.96636 86.1282
lradius 109.714
lwrist 9.98565
lhand -15.4598 -11.0261
lfingers 7.12502
lthumb 10.7213 18.6803
rfemur -3.51363 -13.5514 9.58548
rtibia 59.1917
rfoot -20.4388 0.32047
rtoes -8.20234
lfemur -14.7909 -13.1934 -29.3132
ltibia 44.9824
lfoot -27.3763 15.6035
ltoes -11.4578
194
root 11.5085 16.9635 1.99184 85.9473 -94.9491 -91.7468
lowerback 7.34968 -0.7467 -9.16699
upperback 3.40134 -2.04425 -6.84927
thorax -0.528523 -1.21358 -1.83451
lowerneck 7.31918 4.20543 -0.458832
upperneck 6.9407 5.16494 4.5776
head 0.796128 2.48071 1.41088
rclavicle 2.18663e-015 2.06736e-014
rhumerus -37.7941 10.7764 -103.144
rradius 43.651
rwrist 21.0794
rhand -16.4938 19.0888
rfingers 7.12502
rthumb 9.72371 -10.6667
lclavicle 2.18663e-015 2.06736e-014
lhumerus -50.4419 -2.8312 86.0392
lradius 109.589
lwrist 10.0716
lhand -15.4028 -11.1866
lfingers 7.12502
lthumb 10.7762 18.5169
rfemur -2.16091 -13.2865 9.44749
rtibia 58.497
rfoot -19.8311 -0.018087
rtoes -8.1801
lfemur -15.2812 -13.1216 -29.2156
ltibia 44.9858
lfoot -27.071 15.4516
ltoes -11.305
195
root 11.5922 16.9622 1.98782 85.7052 -95.0223 -91.3667
lowerback 7.15782 -0.600504 -9.05921
upperback 3.30867 -1.82749 -6.93278
thorax -0.5328 -1.10272 -1.99942
lowerneck 7.22085 4.09559 -0.539783
upperneck 7.05956 5.00373 4.69149
head 0.848307 2.40118 1.46791
rclavicle -3.8763e-015 -1.59028e-014
rhumerus -37.7924 10.6808 -103.037
rradius 43.1822
rwrist 21.4109
rhand -16.1537 19.1525
rfingers 7.12502
rthumb 10.0519 -10.5875
lclavicle -3.8763e-015 -1.59028e-014
lhumerus -50.2758 -2.72437 85.883
lradius 109.492
lwrist 10.1668
lhand -15.3197 -11.26
lfingers 7.12502
lthumb 10.8564 18.4394
rfemur -0.881153 -12.9561 9.32634
rtibia 57.7787
rfoot -19.1654 -0.364633
rtoes -8.26517
lfemur -15.7848 -13.1358 -29.1427
ltibia 44.979
lfoot -26.7586 15.4167
ltoes -11.0692
196
root 11.6789 16.9609 1.98341 85.5722 -95.1202 -91.0961
lowerback 6.99396 -0.458176 -8.98754
upperback 3.20965 -1.62256 -7.0036
thorax -0.555864 -0.997434 -2.12925
lowerneck 7.11909 3.99315 -0.642881
upperneck 7.18152 4.8517 4.78878
head 0.902159 2.32589 1.52346
rclavicle -1.59028e-014 -7.63333e-014
rhumerus -37.7887 10.6403 -102.913
rradius 42.7261
rwrist 21.6431
rhand -15.8161 19.1856
rfingers 7.12502
rthumb 10.3776 -10.5383
lclavicle -1.59028e-014 -7.63333e-014
lhumerus -50.1005 -2.61199 85.7313
lradius 109.428
lwrist 10.2684
lhand -15.2544 -11.2991
lfingers 7.12502
lthumb 10.9194 18.397
rfemur 0.332999 -12.6289 9.20238
rtibia 57.059
rfoot -18.411 -0.804149
rtoes -8.48591
lfemur -16.2942 -13.1208 -29.0864
ltibia 44.9525
lfoot -26.4217 15.3359
ltoes -10.7894
197
root 11.7667 16.9595 1.97887 85.3735 -95.2452 -90.7457
lowerback 6.82654 -0.313504 -8.9286
upperback 3.10365 -1.4169 -7.08904
thorax -0.58317 -0.892087 -2.26714
lowerneck 7.0381 3.89458 -0.768877
upperneck 7.27286 4.70375 4.92143
head 0.941969 2.25179 1.59315
rclavicle 1.46107e-014 6.52014e-014
rhumerus -37.7685 10.58 -102.779
rradius 42.2495
rwrist 21.9072
rhand -15.5089 19.1828
rfingers 7.12502
rthumb 10.6739 -10.526
lclavicle 1.46107e-014 6.52014e-014
lhumerus -49.8625 -2.49259 85.5745
lradius 109.336
lwrist 10.3619
lhand -15.1758 -11.3064
lfingers 7.12502
lthumb 10.9952 18.3856
rfemur 1.46461 -12.2707 9.07279
rtibia 56.335
rfoot -17.5718 -1.29788
rtoes -8.65174
lfemur -16.812 -13.1346 -29.0595
ltibia 44.9031
lfoot -26.0651 15.3013
ltoes -10.5456
198
root 11.8554 16.9587 1.97419 85.0552 -95.3978 -90.2758
lowerback 6.66693 -0.169737 -8.90369
upperback 2.98792 -1.21625 -7.16287
thorax -0.622635 -0.789019 -2.37325
lowerneck 6.98264 3.79715 -0.916857
upperneck 7.34486 4.55918 5.00938
head 0.972468 2.17833 1.65154
rclavicle -4.96962e-016 -3.65764e-014
rhumerus -37.7321 10.6075 -102.626
rradius 41.7108
rwrist 22.1191
rhand -15.2711 19.1237
rfingers 7.12502
rthumb 10.9033 -10.5732
lclavicle -4.96962e-016 -3.65764e-014
lhumerus -49.6315 -2.35217 85.4358
lradius 109.272
lwrist 10.3704
lhand -15.135 -11.201
lfingers 7.12502
lthumb 11.0345 18.4889
rfemur 2.51141 -11.8481 8.94216
rtibia 55.6255
rfoot -16.6737 -1.84485
rtoes -8.63595
lfemur -17.3163 -13.0953 -29.0544
ltibia 44.8227
lfoot -25.7203 15.2312
ltoes -10.3162
199
root 11.945 16.9584 1.96884 84.6844 -95.5623 -89.7556
lowerback 6.52119 -0.0257938 -8.88915
upperback 2.86882 -1.01937 -7.24559
thorax -0.672468 -0.687977 -2.48233
lowerneck 6.92329 3.70625 -1.02816
upperneck 7.43687 4.42431 5.08778
head 1.01111 2.1105 1.70098
rclavicle 4.57205e-015 4.6118e-014
rhumerus -37.619 10.5701 -102.458
rradius 41.0662
rwrist 22.3334
rhand -15.0066 19.0884
rfingers 7.12502
rthumb 11.1584 -10.5949
lclavicle 4.57205e-015 4.6118e-014
lhumerus -49.383 -2.22667 85.2876
lradius 109.213
lwrist 10.366
lhand -15.1587 -11.0474
lfingers 7.12502
lthumb 11.0117 18.6438
rfemur 3.48032 -11.3794 8.81928
rtibia 54.9236
rfoot -15.6971 -2.40551
rtoes -8.16435
lfemur -17.7986 -13.0849 -29.0639
ltibia 44.7142
lfoot -25.3569 15.2136
ltoes -10.072
200
root 12.0356 16.9582 1.96325 84.4149 -95.715 -89.3275
lowerback 6.35951 0.104396 -8.85516
upperback 2.76014 -0.835644 -7.32278
thorax -0.701637 -0.594006 -2.59534
lowerneck 6.84318 3.62153 -1.15943
upperneck 7.50242 4.29908 5.16671
head 1.04446 2.04755 1.75391
rclavicle -9.93923e-017 3.65764e-014
rhumerus -37.4398 10.51 -102.264
rradius 40.3609
rwrist 22.5455
rhand -14.7991 19.054
rfingers 7.12502
rthumb 11.3585 -10.6184
lclavicle -9.93923e-017 3.65764e-014
lhumerus -49.1772 -2.08414 85.1488
lradius 109.212
lwrist 10.3438
lhand -15.2176 -10.9417
lfingers 7.12502
lthumb 10.9549 18.7525
rfemur 4.36846 -10.8828 8.73125
rtibia 54.2403
rfoot -14.6572 -2.98692
rtoes -7.22747
lfemur -18.2871 -13.1111 -29.058
ltibia 44.5828
lfoot -24.9777 15.2127
ltoes -9.75423
